# xmcd
#
# Track frame offsets:
#	187
#	16982
#	35925
#
# Disc length: 687 seconds
#
# Revision: 0
# Processed by: cddbd v1.5.2PL0 Copyright (c) Steve Scherf et al.
# Submitted via: dBpowerAMP V4.0
#
DISCID=2002ad03
DTITLE=Various Artist - RCA Single Releases 1992 Volume 6
DYEAR=1900
DGENRE=
TTITLE0=Paul Overstreet - Me and My Baby
TTITLE1=Steve Vaus - We Must Take America Back
TTITLE2=Keith Whitley - Kentucky Bluebird
EXTD=
EXTT0=
EXTT1=
EXTT2=
PLAYORDER=
